<?xml version="1.0" standalone="no"?>
<!DOCTYPE svg PUBLIC "-//W3C//DTD SVG 20010904//EN"
 "http://www.w3.org/TR/2001/REC-SVG-20010904/DTD/svg10.dtd">
<svg version="1.0" xmlns="http://www.w3.org/2000/svg"
 width="300.000000pt" height="80.000000pt" viewBox="0 0 300.000000 80.000000"
 preserveAspectRatio="xMidYMid meet">
<metadata>
Created by potrace 1.10, written by Peter Selinger 2001-2011
</metadata>
<g transform="translate(0.000000,80.000000) scale(0.050000,-0.050000)"
fill="#ffffff" stroke="none">
<path d="M2275 1586 c79 -10 79 -14 10 -94 -30 -35 -70 -85 -89 -112 -44 -63
-75 -27 -76 86 0 96 -110 106 -154 14 -54 -113 -202 -195 -381 -211 -199 -17
-197 -26 -21 132 l144 128 191 23 c178 21 183 23 71 25 -261 6 -516 -72 -773
-234 -105 -66 -150 -83 -223 -83 -223 0 -739 -129 -804 -200 -42 -46 -33 -51
130 -68 274 -29 292 -49 203 -228 -32 -63 -68 -150 -82 -194 -49 -164 -64
-190 -108 -188 -34 2 -35 5 -8 12 33 9 76 124 82 221 2 25 10 45 19 45 16 0
114 205 114 238 0 19 -373 95 -389 80 -5 -6 -24 -59 -41 -119 l-31 -109 10 90
11 90 -32 -70 c-21 -47 -29 -116 -25 -210 3 -77 0 -149 -7 -161 -20 -32 60
-94 268 -207 258 -138 526 -189 941 -178 151 4 275 1 275 -6 0 -31 144 -78
241 -78 147 0 225 53 294 201 l55 117 345 116 344 116 32 -45 c48 -68 159 -63
196 10 33 67 81 356 63 385 -7 11 -15 68 -17 125 -12 281 -384 562 -732 552
-71 -2 -88 -6 -46 -11z m239 -58 c37 -10 106 -129 106 -184 0 -9 -52 -10 -115
-3 -96 12 -120 8 -145 -21 -16 -20 -52 -47 -80 -61 -29 -15 -40 -29 -25 -34
40 -13 29 -45 -15 -45 -72 0 -59 32 104 255 78 106 92 114 170 93z m256 -140
l80 -75 -70 -18 c-38 -10 -86 -27 -105 -37 -30 -16 -35 -9 -34 57 2 60 5 67
19 35 9 -22 18 -28 19 -14 0 14 -12 57 -28 95 -36 86 -7 75 119 -43z m-769
-53 c20 -44 20 -44 12 -1 -7 36 0 43 44 39 115 -9 70 -102 -52 -109 -110 -6
-124 6 -80 76 32 52 52 50 76 -5z m647 -139 c-9 -13 13 -20 72 -21 6 0 35 6
65 13 77 18 69 -21 -10 -45 -153 -48 -454 -52 -441 -5 6 24 1 42 -12 42 -12 0
-22 9 -22 20 0 12 70 19 179 16 98 -2 174 -11 169 -20z m-1078 -28 c-17 -13
-118 -39 -225 -58 -107 -20 -253 -47 -325 -61 -71 -14 -133 -23 -136 -20 -11
11 201 86 285 102 55 10 68 19 48 33 -18 13 0 15 53 7 48 -8 70 -6 54 5 -16
11 32 17 125 16 116 -2 144 -7 121 -24z m220 -19 c-224 -52 -360 -86 -400 -99
-22 -7 -15 2 15 20 59 34 371 107 455 107 28 0 -4 -13 -70 -28z m-839 -60
c-76 -27 -146 -60 -154 -74 -13 -20 -16 -19 -17 2 0 19 -20 23 -75 15 -41 -6
-106 -3 -145 6 -61 16 -53 18 70 20 77 1 194 20 260 40 175 56 224 48 61 -9z
m1289 31 c0 -7 -9 -21 -20 -32 -13 -13 2 -17 46 -12 l66 7 -1 -126 c-1 -112
-6 -129 -46 -147 -48 -21 -61 -50 -22 -50 51 0 175 47 165 63 -6 10 -19 12
-29 6 -11 -6 -19 3 -19 20 0 17 14 31 30 31 36 0 39 23 6 56 -26 26 -27 25
130 35 68 5 72 2 40 -21 -28 -21 -29 -27 -6 -25 77 4 104 -6 93 -35 -7 -16 -4
-30 5 -30 19 0 41 68 42 125 0 19 -13 35 -30 35 -16 0 -30 4 -30 8 0 5 -5 23
-12 40 -9 23 -1 32 27 32 42 0 65 -65 65 -181 0 -46 7 -54 45 -47 34 6 30 1
-15 -21 -49 -24 -53 -30 -20 -32 34 -3 35 -5 5 -13 -19 -5 -35 -17 -35 -27 0
-10 -13 -13 -30 -6 -16 6 -46 5 -65 -4 -19 -8 -48 -16 -65 -19 -168 -22 -325
-62 -332 -84 -28 -94 -32 -93 -68 14 -66 196 -203 254 -356 150 -89 -61 -112
-63 -83 -9 12 23 60 59 105 81 49 22 63 35 34 29 -27 -6 -66 -11 -85 -11 -20
0 -45 -22 -55 -50 -10 -27 -26 -50 -35 -50 -9 0 -33 -31 -54 -70 -20 -38 -47
-71 -59 -71 -12 -1 -4 -10 18 -19 31 -13 32 -18 7 -19 -47 -2 -107 -128 -65
-138 27 -6 27 -11 -2 -43 -18 -20 -36 -53 -40 -73 -4 -20 -8 -41 -9 -47 -1 -5
-10 4 -21 20 -16 24 -19 21 -20 -16 0 -56 -78 -25 -95 38 -7 28 -28 38 -78 38
-49 0 -88 17 -132 59 -75 70 -68 83 59 95 109 10 206 43 206 68 0 10 14 18 30
18 17 0 30 17 30 39 0 21 17 44 38 50 52 17 44 115 -15 178 l-47 49 107 22
c59 11 190 35 291 52 101 17 213 44 250 59 64 28 156 34 156 11z m-855 -204
c41 -5 42 -11 14 -91 -23 -65 -280 -105 -396 -62 -27 10 -97 9 -170 -3 -239
-39 -252 -29 -138 95 l75 81 290 -8 c160 -4 306 -10 325 -12z m-1135 -36 c-7
-12 11 -15 49 -7 52 10 60 7 49 -20 -14 -37 -18 -38 -83 -20 -45 12 -64 67
-24 67 12 0 16 -9 9 -20z m2745 -69 c-5 -27 1 -54 13 -59 14 -6 11 -16 -8 -30
-27 -19 -27 -22 0 -23 20 -1 17 -7 -10 -19 -22 -9 -29 -18 -15 -19 14 0 25
-11 25 -23 0 -13 -18 -18 -40 -12 -25 6 -47 -2 -59 -23 -18 -31 -20 -30 -20 1
-1 18 9 40 20 47 12 7 17 25 11 40 -6 16 3 42 20 58 17 17 25 40 18 51 -15 24
5 60 34 60 11 0 16 -22 11 -49z m-2770 -108 c106 -37 104 -33 85 -143 -18
-106 -25 -108 -146 -38 -104 59 -116 81 -91 173 14 52 25 53 152 8z m1775 7
c13 -16 34 -24 45 -17 12 7 16 4 9 -7 -7 -11 -4 -50 6 -87 24 -81 4 -219 -30
-219 -31 0 -55 -84 -38 -128 22 -56 -32 -34 -57 23 l-23 55 -8 -80 c-4 -46 2
-82 15 -86 45 -15 -23 -64 -88 -64 -183 0 -210 392 -41 572 71 74 165 92 210
38z m-1353 -120 c-7 -19 0 -30 19 -30 17 0 35 11 39 25 7 18 20 16 49 -10 21
-19 49 -35 60 -35 28 0 46 -47 29 -75 -20 -33 -116 -52 -132 -27 -9 15 -25 16
-51 2 -26 -14 -42 -13 -51 1 -9 15 -21 14 -39 -1 -57 -47 -62 88 -6 155 30 36
98 32 83 -5z m1717 -33 c-47 -22 -106 -36 -130 -32 -33 5 -18 16 56 40 137 44
178 40 74 -8z m-2112 -152 c-12 -11 -146 54 -170 82 -13 17 21 6 75 -23 55
-30 98 -56 95 -59z m790 -27 c37 -12 82 -26 98 -32 17 -6 65 -9 107 -7 52 3
73 -3 64 -17 -7 -12 -42 -22 -77 -23 -35 0 -100 -18 -144 -39 -101 -49 -113
-49 -175 -1 -38 30 -95 43 -242 53 -253 18 -250 45 3 32 163 -7 199 -4 222 24
32 38 53 39 144 10z"/>
<path d="M2076 945 c-4 -19 20 -82 56 -140 59 -98 64 -102 73 -55 15 79 -111
270 -129 195z"/>
<path d="M1102 832 c-18 -21 -16 -30 9 -40 66 -25 92 -15 69 28 -25 47 -46 50
-78 12z"/>
<path d="M1809 655 c-7 -18 0 -53 14 -78 l27 -47 6 57 c8 67 -28 118 -47 68z"/>
<path d="M1732 528 c-20 -52 -14 -68 25 -68 52 0 65 19 42 63 -25 45 -51 48
-67 5z"/>
<path d="M1878 448 c-12 -15 -29 -24 -37 -19 -7 5 -9 -20 -4 -55 5 -35 13 -53
18 -39 5 14 22 25 38 25 20 0 26 12 18 38 -14 42 18 76 39 42 17 -28 50 -25
50 5 0 35 -94 37 -122 3z"/>
<path d="M1700 357 c0 -57 1 -57 50 -25 28 18 50 40 50 48 0 8 -22 20 -50 25
-44 8 -50 3 -50 -48z"/>
<path d="M1763 274 c-49 -53 -56 -94 -15 -94 25 0 82 116 66 133 -4 4 -27 -14
-51 -39z"/>
<path d="M1831 218 c-32 -81 -28 -124 8 -87 20 21 51 169 35 169 -5 0 -25 -37
-43 -82z"/>
<path d="M906 328 c-15 -41 27 -68 104 -66 33 1 49 6 35 11 -14 6 -25 29 -25
52 0 41 -1 41 -43 3 -39 -34 -42 -34 -31 -3 7 19 4 35 -7 35 -11 0 -26 -14
-33 -32z"/>
<path d="M3363 1083 c-52 -143 -52 -143 -3 -143 22 0 40 13 40 30 0 17 18 30
40 30 22 0 40 -13 40 -30 0 -17 18 -30 40 -30 41 0 53 37 23 71 -9 10 -27 57
-40 104 -37 127 -87 115 -140 -32z"/>
<path d="M3580 1091 c0 -134 107 -211 175 -126 41 52 43 235 2 235 -31 0 -37
-16 -37 -101 0 -144 -67 -138 -76 6 -9 144 -64 132 -64 -14z"/>
<path d="M3820 1170 c0 -17 18 -30 43 -30 39 0 42 -7 31 -100 -12 -95 -10
-100 35 -100 46 0 48 4 37 109 -11 103 -9 108 31 97 31 -7 43 -1 43 22 0 26
-22 32 -110 32 -84 0 -110 -7 -110 -30z"/>
<path d="M4084 1176 c-70 -70 -16 -236 76 -236 96 0 155 215 68 248 -51 19
-118 14 -144 -12z m112 -103 c5 -56 -1 -73 -25 -73 -41 0 -59 46 -42 111 18
73 60 50 67 -38z"/>
<path d="M4300 1070 c0 -119 4 -130 43 -130 38 0 41 8 30 85 -12 85 -12 85 18
30 17 -30 39 -55 49 -55 10 0 33 25 50 55 l31 55 -6 -79 c-4 -63 3 -82 30 -87
30 -6 35 9 35 93 0 55 5 114 12 131 10 25 -1 32 -49 32 -50 0 -65 -10 -75 -50
-7 -27 -19 -50 -28 -50 -9 0 -21 23 -28 50 -31 122 -112 64 -112 -80z"/>
<path d="M4645 1187 c-32 -13 -33 -191 -1 -223 74 -74 176 -12 176 106 0 115
-68 160 -175 117z m107 -77 c16 -63 -2 -110 -41 -110 -22 0 -31 20 -31 67 0
102 50 132 72 43z"/>
<path d="M4840 1168 c0 -23 12 -29 43 -22 40 11 42 6 31 -97 -11 -105 -9 -109
37 -109 45 0 47 5 35 100 -11 93 -8 100 31 100 25 0 43 13 43 30 0 23 -26 30
-110 30 -88 0 -110 -6 -110 -32z"/>
<path d="M5104 1176 c-34 -34 -30 -168 7 -205 101 -100 242 53 170 186 -25 48
-136 60 -177 19z m116 -107 c0 -48 -9 -69 -30 -69 -30 0 -44 119 -17 146 25
26 47 -10 47 -77z"/>
<path d="M5330 1075 c1 -101 8 -126 36 -131 25 -5 34 7 34 46 l0 52 47 -54
c28 -33 56 -49 71 -39 19 11 16 25 -12 56 -26 30 -29 43 -11 50 91 32 11 145
-102 145 l-65 0 2 -125z"/>
<path d="M5602 1105 c-15 -52 -31 -111 -37 -130 -12 -44 46 -48 62 -5 7 17 25
30 40 30 16 0 34 -13 40 -30 15 -38 93 -39 93 -1 0 16 -8 33 -17 39 -10 6 -29
52 -43 101 -36 131 -101 129 -138 -4z"/>
<path d="M3653 707 c-77 -78 13 -256 123 -243 72 8 95 136 25 136 -28 0 -41
-13 -41 -42 0 -57 -49 -37 -55 24 -8 68 26 115 58 83 36 -36 57 -31 57 15 0
40 -132 61 -167 27z"/>
<path d="M3930 695 c-41 -114 -70 -203 -70 -218 0 -29 61 -19 73 13 15 39 65
39 80 0 13 -35 59 -40 78 -9 7 11 4 32 -7 45 -11 13 -31 62 -45 109 -25 85
-88 119 -109 60z"/>
<path d="M4108 688 c7 -17 12 -76 12 -131 0 -85 5 -99 35 -93 27 6 34 25 30
87 l-5 79 31 -55 c38 -68 64 -70 89 -5 27 71 40 62 34 -25 -3 -55 4 -75 26
-75 23 0 31 30 36 125 7 139 -77 197 -108 75 -7 -27 -19 -50 -28 -50 -9 0 -21
23 -28 50 -10 40 -25 50 -75 50 -48 0 -59 -7 -49 -32z"/>
<path d="M4440 595 c11 -137 37 -158 145 -117 47 18 53 30 48 106 -7 118 -22
136 -119 136 l-84 0 10 -125z"/>
<path d="M4674 615 c13 -151 16 -155 105 -155 59 0 81 8 81 30 0 19 -19 30
-50 30 -31 0 -50 11 -50 30 0 17 14 30 30 30 17 0 30 9 30 20 0 11 -13 20 -30
20 -16 0 -30 14 -30 31 0 21 15 29 43 25 24 -3 47 5 52 19 6 18 -20 25 -90 25
l-99 0 8 -105z"/>
<path d="M4880 690 c0 -17 18 -30 43 -30 39 0 42 -7 31 -100 -12 -96 -10 -100
36 -100 46 0 48 4 36 100 -11 93 -8 100 31 100 25 0 43 13 43 30 0 23 -26 30
-110 30 -84 0 -110 -7 -110 -30z"/>
<path d="M5120 689 c0 -18 14 -28 35 -25 30 5 35 -9 32 -99 -2 -97 1 -105 44
-105 44 0 46 5 35 109 -11 103 -9 108 31 97 31 -7 43 -1 43 22 0 26 -22 32
-110 32 -86 0 -110 -7 -110 -31z"/>
<path d="M5410 655 c-8 -36 -27 -86 -43 -111 -16 -25 -23 -54 -17 -65 19 -29
64 -23 77 11 7 17 25 30 40 30 16 0 34 -13 40 -30 13 -34 64 -40 84 -9 7 11 4
32 -7 45 -11 13 -31 62 -45 109 -33 111 -108 123 -129 20z"/>
</g>
</svg>
